<svg width="20" height="20" viewBox="0 0 20 20" fill="none" xmlns="http://www.w3.org/2000/svg">
	<g clip-path="url(#clip0)">
		<path d="M9.99973 0.729172C14.7965 0.729172 18.722 4.06757 18.8 8.25188L18.801 8.36057L18.8013 8.36469C18.8024 8.38684 18.8024 8.40902 18.801 8.43183L18.7993 8.45487L18.7975 8.47053C18.7964 8.47971 18.7951 8.48886 18.7936 8.498C18.788 8.59124 18.7545 8.68347 18.6921 8.76103L18.6792 8.77634L15.7705 11.7678C15.7795 11.8353 15.7841 11.9041 15.7841 11.974V17.5675C15.7841 18.4219 15.0938 19.1146 14.2423 19.1146H5.70326C4.85176 19.1146 4.16148 18.4219 4.16148 17.5675V11.974C4.16148 11.8867 4.1687 11.801 4.18257 11.7175L1.34187 8.77498C1.31977 8.74959 1.30092 8.72247 1.2853 8.69412C1.24821 8.63706 1.22461 8.57579 1.21112 8.51312C1.2028 8.47447 1.19892 8.43801 1.19791 8.40205V8.38051L1.19838 8.36641L1.19943 8.25188C1.2759 4.15125 5.04751 0.863046 9.71299 0.733158L9.85464 0.730191L9.99973 0.729172ZM13.4115 8.29753L12.6603 10.4269L14.2423 10.4269C14.6715 10.4269 15.0596 10.6029 15.3392 10.8868L17.6183 8.54278L17.588 8.51612L17.5609 8.49262L17.5348 8.47031L17.5095 8.44903L17.4848 8.42863L17.4524 8.40253L17.4363 8.38985L17.4202 8.37736L17.3959 8.35886L17.3796 8.34662L17.363 8.33441L17.3376 8.31604L17.3024 8.29119L17.2459 8.25242C16.8277 7.96978 16.3566 7.79042 15.7985 7.74818C15.1043 7.69563 14.3139 7.86118 13.4115 8.29753ZM4.25061 7.78106C3.70075 7.82205 3.23079 7.98882 2.80844 8.25163L2.7743 8.27315L2.72206 8.30688L2.68963 8.32831L2.64353 8.35966L2.62123 8.37527L2.59188 8.3963L2.57725 8.407L2.55521 8.42339L2.5329 8.4403L2.50243 8.4639L2.47879 8.48255L2.4543 8.50217L2.41998 8.53007L2.40272 8.54426L4.63594 10.8576C4.91295 10.5908 5.28903 10.4269 5.70326 10.4269L7.31778 10.4269L6.55612 8.26773C5.69364 7.87745 4.9298 7.73043 4.25061 7.78106ZM7.50718 8.18806L8.29699 10.4269H11.6811L12.4838 8.15187C12.2337 8.0177 11.8883 7.90886 11.4902 7.83055L11.4125 7.81578C11.2427 7.7846 11.0642 7.75885 10.8801 7.73891L10.7947 7.73012C10.5517 7.70639 10.2999 7.69269 10.0464 7.68989L10.0077 7.68955C8.96673 7.68261 8.07708 7.85943 7.50718 8.18806Z" fill="#FF2368"/>
		<path fill-rule="evenodd" clip-rule="evenodd" d="M7.30903 13.4375C7.54873 13.4375 7.74306 13.6309 7.74306 13.8694C7.74306 15.1098 8.75352 16.1153 10 16.1153C11.2465 16.1153 12.2569 15.1098 12.2569 13.8694C12.2569 13.6309 12.4513 13.4375 12.691 13.4375C12.9307 13.4375 13.125 13.6309 13.125 13.8694C13.125 15.5869 11.7259 16.9792 10 16.9792C8.27411 16.9792 6.875 15.5869 6.875 13.8694C6.875 13.6309 7.06932 13.4375 7.30903 13.4375Z" fill="white"/>
	</g>
	<defs>
		<clipPath id="clip0">
			<rect width="20" height="20" fill="white"/>
		</clipPath>
	</defs>
</svg>
