<svg width="326" height="32" viewBox="0 0 326 32" fill="none" xmlns="http://www.w3.org/2000/svg">
<g clip-path="url(#clip0)">
<g clip-path="url(#clip1)">
<g clip-path="url(#clip2)">
<path fill-rule="evenodd" clip-rule="evenodd" d="M155.499 9.33713V16.8415C155.499 17.9295 155.793 18.7142 156.38 19.1958C156.967 19.6773 157.688 19.9181 158.542 19.9181C159.627 19.9181 160.433 19.6149 160.958 19.0085C161.483 18.4021 161.745 17.5906 161.745 16.574V9.33713H164.521V21.7908C164.521 22.7896 164.325 23.6457 163.934 24.3592C163.542 25.0726 163.053 25.6612 162.466 26.1249C161.879 26.5886 161.242 26.9319 160.557 27.1549C159.872 27.3778 159.227 27.4893 158.622 27.4893C157.892 27.4893 157.256 27.4269 156.714 27.302C156.171 27.1772 155.686 26.9988 155.259 26.767C154.832 26.5351 154.454 26.2631 154.124 25.951C153.795 25.6389 153.47 25.3044 153.15 24.9477L155.499 23.5031C155.944 23.9311 156.398 24.2655 156.86 24.5063C157.323 24.7471 157.857 24.8675 158.462 24.8675C158.925 24.8675 159.365 24.7961 159.783 24.6534C160.201 24.5108 160.566 24.3012 160.878 24.0247C161.189 23.7483 161.438 23.396 161.625 22.968C161.812 22.5399 161.905 22.0405 161.905 21.4698V20.7742H161.852C161.3 21.3985 160.735 21.8488 160.157 22.1253C159.579 22.4017 158.844 22.5399 157.955 22.5399C157.225 22.5399 156.544 22.4062 155.913 22.1386C155.281 21.8711 154.729 21.4921 154.258 21.0016C153.786 20.5111 153.413 19.9047 153.137 19.1824C152.861 18.4601 152.723 17.6441 152.723 16.7345V9.33713H155.499Z" fill="black"/>
<path fill-rule="evenodd" clip-rule="evenodd" d="M150.207 5.12598V22.6261H147.345V5.12598H150.207Z" fill="black"/>
<path fill-rule="evenodd" clip-rule="evenodd" d="M138.198 8.9624C140.973 8.9624 145.136 11.2492 145.136 16.427V16.9448H134.035C134.209 18.9727 136.117 20.4397 138.111 20.4397C139.672 20.4397 140.973 19.7062 141.971 18.3686L144.399 19.7494C142.795 21.7773 140.583 22.9855 138.198 22.9855C133.515 22.9855 130.826 19.4905 130.826 15.9524C130.826 12.4142 133.515 8.9624 138.198 8.9624ZM137.731 11.4592C135.91 11.4592 134.436 12.581 133.959 14.5658H141.677C141.07 12.5379 139.552 11.4592 137.731 11.4592Z" fill="black"/>
<path fill-rule="evenodd" clip-rule="evenodd" d="M130.155 9.28674L123.598 19.9046H129.988V22.6003H118.771L125.3 11.9825H119.33V9.28674H130.155Z" fill="black"/>
<path fill-rule="evenodd" clip-rule="evenodd" d="M116.56 9.31068V22.6002H113.698V9.31068H116.56ZM115.115 4.78809C115.982 4.78809 116.72 5.5216 116.72 6.38456C116.72 7.24751 115.982 7.98103 115.115 7.98103C114.248 7.98103 113.511 7.24751 113.511 6.38456C113.511 5.47845 114.205 4.78809 115.115 4.78809Z" fill="black"/>
<path fill-rule="evenodd" clip-rule="evenodd" d="M106.31 8.91214C106.966 8.91214 107.586 9.0317 108.169 9.27026C108.752 9.50909 109.262 9.85812 109.7 10.3171C110.137 10.7763 110.488 11.3363 110.752 11.9974C111.016 12.6586 111.148 13.4117 111.148 14.2563V22.6032H108.306V14.2839C108.306 13.4759 108.087 12.8561 107.65 12.4244C107.212 11.993 106.702 11.7771 106.119 11.7771C105.426 11.7771 104.857 11.9974 104.411 12.4382C103.964 12.879 103.741 13.6227 103.741 14.6695V22.6032H100.898V14.6695C100.898 13.6227 100.675 12.879 100.229 12.4382C99.7816 11.9974 99.2125 11.7771 98.5202 11.7771C97.9366 11.7771 97.4268 11.993 96.9895 12.4244C96.5521 12.8561 96.3335 13.4759 96.3335 14.2839V22.6032H93.4907V14.2563C93.4907 13.4117 93.6228 12.6586 93.8871 11.9974C94.1511 11.3363 94.5021 10.7763 94.9394 10.3171C95.3768 9.85812 95.8868 9.50909 96.4701 9.27026C97.0532 9.0317 97.6728 8.91214 98.3288 8.91214C99.3309 8.91214 100.178 9.13252 100.871 9.57328C101.563 10.014 102.037 10.5834 102.292 11.2812H102.347C102.602 10.5834 103.076 10.014 103.768 9.57328C104.46 9.13252 105.308 8.91214 106.31 8.91214Z" fill="black"/>
<path fill-rule="evenodd" clip-rule="evenodd" d="M84.2241 8.86926C85.3803 8.86926 86.4173 9.07107 87.3349 9.4747C88.2526 9.87833 89.0234 10.4058 89.6474 11.0571C90.2714 11.7084 90.7486 12.456 91.079 13.3C91.4093 14.1439 91.5745 15.0062 91.5745 15.8869C91.5745 16.7675 91.4093 17.6298 91.079 18.4737C90.7486 19.3177 90.2714 20.0653 89.6474 20.7166C89.0234 21.3679 88.2526 21.8954 87.3349 22.299C86.4173 22.7026 85.3803 22.9044 84.2241 22.9044C83.0678 22.9044 82.0309 22.7026 81.1132 22.299C80.1955 21.8954 79.4247 21.3679 78.8007 20.7166C78.1767 20.0653 77.6995 19.3177 77.3692 18.4737C77.0388 17.6298 76.8736 16.7675 76.8736 15.8869C76.8736 15.0062 77.0388 14.1439 77.3692 13.3C77.6995 12.456 78.1767 11.7084 78.8007 11.0571C79.4247 10.4058 80.1955 9.87833 81.1132 9.4747C82.0309 9.07107 83.0678 8.86926 84.2241 8.86926ZM84.2241 11.5662C83.6001 11.5662 83.0219 11.6809 82.4897 11.9102C81.9574 12.1396 81.4986 12.4469 81.1132 12.8321C80.7278 13.2174 80.4295 13.6715 80.2185 14.1944C80.0074 14.7173 79.9019 15.2814 79.9019 15.8869C79.9019 16.4923 80.0074 17.0564 80.2185 17.5793C80.4295 18.1022 80.7278 18.5563 81.1132 18.9416C81.4986 19.3268 81.9574 19.6341 82.4897 19.8635C83.0219 20.0928 83.6001 20.2075 84.2241 20.2075C84.8481 20.2075 85.4262 20.0928 85.9584 19.8635C86.4907 19.6341 86.9495 19.3268 87.3349 18.9416C87.7203 18.5563 88.0186 18.1022 88.2296 17.5793C88.4407 17.0564 88.5462 16.4923 88.5462 15.8869C88.5462 15.2814 88.4407 14.7173 88.2296 14.1944C88.0186 13.6715 87.7203 13.2174 87.3349 12.8321C86.9495 12.4469 86.4907 12.1396 85.9584 11.9102C85.4262 11.6809 84.8481 11.5662 84.2241 11.5662Z" fill="black"/>
<path fill-rule="evenodd" clip-rule="evenodd" d="M73.7805 5.3342V9.3038H75.8186V11.979H73.7805V22.5933H70.9185V11.979H69.2707V9.3038H70.9185V5.3342H73.7805Z" fill="black"/>
<path fill-rule="evenodd" clip-rule="evenodd" d="M58.0924 9.28674V16.7601C58.0924 17.2529 58.1738 17.7001 58.3365 18.1017C58.4991 18.5032 58.7251 18.8546 59.0144 19.1557C59.3036 19.4569 59.6426 19.6896 60.0312 19.8539C60.4199 20.0182 60.8311 20.1003 61.265 20.1003C61.6989 20.1003 62.1101 20.0182 62.4988 19.8539C62.8875 19.6896 63.2264 19.4569 63.5157 19.1557C63.8049 18.8546 64.0309 18.5032 64.1936 18.1017C64.3563 17.7001 64.4376 17.2529 64.4376 16.7601V9.28674H67.2577V17.0065C67.2577 17.9374 67.0905 18.7724 66.7561 19.5117C66.4216 20.2509 65.9787 20.8715 65.4274 21.3734C64.876 21.8753 64.2388 22.2632 63.5157 22.537C62.7926 22.8108 62.0423 22.9477 61.265 22.9477C60.4877 22.9477 59.7375 22.8108 59.0144 22.537C58.2913 22.2632 57.654 21.8753 57.1027 21.3734C56.5513 20.8715 56.1084 20.2509 55.774 19.5117C55.4395 18.7724 55.2723 17.9374 55.2723 17.0065V9.28674H58.0924Z" fill="black"/>
<path fill-rule="evenodd" clip-rule="evenodd" d="M45.7349 8.9624C47.7296 8.9624 49.2473 9.82536 49.9844 10.9472H50.0278V9.30759H52.8898V22.5971H50.0278V21.0007H49.9844C49.0738 22.2088 47.426 22.9855 45.6048 22.9855C41.2251 22.9855 38.6667 19.4042 38.6667 15.9524C38.6667 12.6731 41.3985 8.9624 45.7349 8.9624ZM45.9517 11.6318C43.6101 11.6318 41.7021 13.5734 41.7021 15.9465C41.7021 18.3197 43.6101 20.2613 45.9517 20.2613C48.2066 20.2613 50.1579 18.3197 50.1579 15.9465C50.1579 13.5734 48.2066 11.6318 45.9517 11.6318Z" fill="black"/>
<path fill-rule="evenodd" clip-rule="evenodd" d="M319.095 8.91992C319.969 8.91992 320.745 9.07982 321.423 9.39963C322.101 9.71944 322.672 10.1814 323.135 10.7855H323.189V9.26638H325.811V20.7261C325.811 21.7922 325.624 22.7427 325.249 23.5777C324.875 24.4128 324.371 25.1146 323.737 25.6831C323.104 26.2517 322.382 26.687 321.57 26.989C320.758 27.2911 319.916 27.4421 319.041 27.4421C318.132 27.4421 317.182 27.2422 316.192 26.8424C315.202 26.4427 314.332 25.7897 313.583 24.8836L315.857 23.2313C316.125 23.6044 316.535 23.9642 317.088 24.3106C317.641 24.6571 318.248 24.8303 318.908 24.8303C319.621 24.8303 320.246 24.7237 320.781 24.5105C321.316 24.2973 321.762 24.013 322.119 23.6577C322.475 23.3023 322.743 22.8982 322.921 22.4451C323.1 21.992 323.189 21.5168 323.189 21.0193V20.1665C322.6 20.8238 321.958 21.3213 321.262 21.6589C320.567 21.9965 319.737 22.1653 318.774 22.1653C317.935 22.1653 317.137 22.0142 316.379 21.7122C315.621 21.4102 314.952 20.9749 314.372 20.4063C313.793 19.8378 313.333 19.1449 312.994 18.3276C312.655 17.5103 312.486 16.5953 312.486 15.5826C312.486 14.5165 312.669 13.5705 313.034 12.7443C313.4 11.9181 313.886 11.2208 314.493 10.6522C315.099 10.0837 315.804 9.65281 316.607 9.35966C317.409 9.0665 318.239 8.91992 319.095 8.91992ZM319.244 11.5267C318.713 11.5267 318.209 11.6325 317.732 11.844C317.254 12.0555 316.843 12.3375 316.498 12.69C316.153 13.0425 315.879 13.4611 315.676 13.9458C315.472 14.4305 315.371 14.946 315.371 15.4924C315.371 16.0564 315.464 16.5807 315.649 17.0654C315.835 17.5501 316.096 17.9687 316.432 18.3212C316.768 18.6737 317.175 18.9557 317.652 19.1672C318.13 19.3787 318.66 19.4844 319.244 19.4844C319.792 19.4844 320.3 19.3787 320.769 19.1672C321.238 18.9557 321.644 18.6737 321.989 18.3212C322.334 17.9687 322.599 17.5501 322.785 17.0654C322.971 16.5807 323.064 16.0652 323.064 15.5188C323.064 14.9724 322.962 14.4525 322.759 13.959C322.555 13.4655 322.281 13.0425 321.936 12.69C321.591 12.3375 321.189 12.0555 320.729 11.844C320.269 11.6325 319.774 11.5267 319.244 11.5267Z" fill="black"/>
<path fill-rule="evenodd" clip-rule="evenodd" d="M305.489 8.99042C306.18 8.99042 306.839 9.12762 307.466 9.40203C308.093 9.67643 308.638 10.0653 309.102 10.5683C309.566 11.0715 309.934 11.6659 310.206 12.3519C310.479 13.0379 310.616 13.7925 310.616 14.6157V22.6284H307.779V15.2469C307.779 14.0395 307.493 13.1707 306.921 12.64C306.348 12.1096 305.588 11.8442 304.644 11.8442C303.716 11.8442 302.944 12.128 302.326 12.6949C301.707 13.2621 301.398 14.0944 301.398 15.192V22.6313H298.562V9.34715H301.398V11.021H301.453C301.853 10.3992 302.398 9.90529 303.089 9.53923C303.78 9.17345 304.58 8.99042 305.489 8.99042Z" fill="black"/>
<path fill-rule="evenodd" clip-rule="evenodd" d="M295.876 9.34767V22.6318H293.02V9.34767H295.876ZM294.434 5.36859C295.3 5.36859 296.035 6.10087 296.035 6.96238C296.035 7.82389 295.3 8.55617 294.434 8.55617C293.569 8.55617 292.833 7.82389 292.833 6.96238C292.833 6.0578 293.526 5.36859 294.434 5.36859Z" fill="black"/>
<path fill-rule="evenodd" clip-rule="evenodd" d="M284.061 8.89719C288.431 8.89719 290.984 12.4724 290.984 15.9185C290.984 19.1922 288.258 22.8967 283.931 22.8967C281.941 22.8967 280.426 22.0352 279.691 20.9152H279.647V27.1611H276.792V9.28486H279.647V10.8787H279.691C280.729 9.62947 282.244 8.89719 284.061 8.89719ZM283.715 11.6109C281.465 11.6109 279.518 13.5493 279.518 15.9185C279.518 18.2876 281.465 20.226 283.715 20.226C286.051 20.226 287.955 18.2876 287.955 15.9185C287.955 13.5493 286.051 11.6109 283.715 11.6109Z" fill="black"/>
<path fill-rule="evenodd" clip-rule="evenodd" d="M268.019 8.89719C272.39 8.89719 274.942 12.4724 274.942 15.9185C274.942 19.1922 272.216 22.8967 267.889 22.8967C265.899 22.8967 264.385 22.0352 263.649 20.9152H263.606V27.1611H260.75V9.28486H263.606V10.8787H263.649C264.688 9.62947 266.202 8.89719 268.019 8.89719ZM267.673 11.6109C265.423 11.6109 263.476 13.5493 263.476 15.9185C263.476 18.2876 265.423 20.226 267.673 20.226C270.01 20.226 271.914 18.2876 271.914 15.9185C271.914 13.5493 270.01 11.6109 267.673 11.6109Z" fill="black"/>
<path fill-rule="evenodd" clip-rule="evenodd" d="M257.983 9.34767V22.6318H255.127V9.34767H257.983ZM256.541 5.36859C257.407 5.36859 258.142 6.10087 258.142 6.96238C258.142 7.82389 257.407 8.55617 256.541 8.55617C255.676 8.55617 254.94 7.82389 254.94 6.96238C254.94 6.0578 255.633 5.36859 256.541 5.36859Z" fill="black"/>
<path fill-rule="evenodd" clip-rule="evenodd" d="M243.178 5.34796V10.9908H243.221C244 9.74165 245.471 8.96629 247.289 8.96629C250.101 8.96629 252.481 11.2924 252.481 14.6092V22.6212H249.625V15.2122C249.625 12.8 248.37 11.8093 246.467 11.8093C244.606 11.8093 243.178 12.9723 243.178 15.1691V22.6212H240.322V5.34796H243.178Z" fill="black"/>
<path fill-rule="evenodd" clip-rule="evenodd" d="M232.76 8.88623C234.621 8.88623 236.222 9.44621 238.039 10.7385L236.395 12.763C235.01 11.6 233.755 11.2985 232.803 11.2985C231.548 11.2985 230.337 11.9015 230.337 12.9784C230.337 13.7537 230.986 14.1845 232.068 14.3568L234.967 14.9168C237.347 15.3475 238.515 16.4675 238.515 18.449C238.515 20.3874 236.914 22.9288 232.847 22.9288C230.597 22.9288 228.649 22.1534 226.832 20.6027L228.866 18.6213C229.904 19.6981 231.548 20.5597 233.063 20.5597C234.707 20.5597 235.702 19.612 235.702 18.8797C235.702 18.0182 235.01 17.5444 233.972 17.329L232.327 17.0275C228.563 16.3383 227.524 15.1322 227.524 13.2368C227.524 10.9969 229.428 8.88623 232.76 8.88623Z" fill="black"/>
<path fill-rule="evenodd" clip-rule="evenodd" d="M218.892 8.89719C223.263 8.89719 225.816 12.4724 225.816 15.9185C225.816 19.1922 223.09 22.8967 218.763 22.8967C216.772 22.8967 215.258 22.0352 214.522 20.9152H214.479V27.1611H211.623V9.28486H214.479V10.8787H214.522C215.561 9.62947 217.075 8.89719 218.892 8.89719ZM218.546 11.6109C216.296 11.6109 214.349 13.5493 214.349 15.9185C214.349 18.2876 216.296 20.226 218.546 20.226C220.883 20.226 222.787 18.2876 222.787 15.9185C222.787 13.5493 220.883 11.6109 218.546 11.6109Z" fill="black"/>
<path fill-rule="evenodd" clip-rule="evenodd" d="M202.184 8.89719C203.337 8.89719 204.372 9.09866 205.288 9.50161C206.203 9.90456 206.973 10.4311 207.595 11.0813C208.218 11.7316 208.694 12.4779 209.024 13.3205C209.353 14.163 209.518 15.0238 209.518 15.903C209.518 16.7821 209.353 17.643 209.024 18.4855C208.694 19.328 208.218 20.0744 207.595 20.7246C206.973 21.3748 206.203 21.9014 205.288 22.3044C204.372 22.7073 203.337 22.9088 202.184 22.9088C201.03 22.9088 199.995 22.7073 199.079 22.3044C198.164 21.9014 197.395 21.3748 196.772 20.7246C196.149 20.0744 195.673 19.328 195.343 18.4855C195.014 17.643 194.849 16.7821 194.849 15.903C194.849 15.0238 195.014 14.163 195.343 13.3205C195.673 12.4779 196.149 11.7316 196.772 11.0813C197.395 10.4311 198.164 9.90456 199.079 9.50161C199.995 9.09866 201.03 8.89719 202.184 8.89719ZM202.184 11.5896C201.561 11.5896 200.984 11.7041 200.453 11.933C199.922 12.162 199.464 12.4688 199.079 12.8534C198.695 13.238 198.397 13.6913 198.187 14.2134C197.976 14.7354 197.871 15.2986 197.871 15.903C197.871 16.5074 197.976 17.0706 198.187 17.5926C198.397 18.1146 198.695 18.5679 199.079 18.9526C199.464 19.3372 199.922 19.644 200.453 19.8729C200.984 20.1019 201.561 20.2164 202.184 20.2164C202.806 20.2164 203.383 20.1019 203.914 19.8729C204.445 19.644 204.903 19.3372 205.288 18.9526C205.672 18.5679 205.97 18.1146 206.18 17.5926C206.391 17.0706 206.496 16.5074 206.496 15.903C206.496 15.2986 206.391 14.7354 206.18 14.2134C205.97 13.6913 205.672 13.238 205.288 12.8534C204.903 12.4688 204.445 12.162 203.914 11.933C203.383 11.7041 202.806 11.5896 202.184 11.5896Z" fill="black"/>
<path fill-rule="evenodd" clip-rule="evenodd" d="M193.354 8.94107C194.003 8.94107 194.522 9.11337 194.912 9.37183L193.873 12.2148C193.614 11.9994 193.094 11.8271 192.791 11.8271C191.753 11.8271 190.801 12.6025 190.801 13.8517V22.6391H187.945V9.28567H190.671V10.7502H190.714C191.19 9.67335 192.186 8.94107 193.354 8.94107Z" fill="black"/>
<path fill-rule="evenodd" clip-rule="evenodd" d="M185.359 4.76562V22.6419H182.503V21.0481H182.46C181.422 22.2973 179.907 23.0296 178.09 23.0296C173.72 23.0296 171.167 19.4543 171.167 16.0083C171.167 12.7346 173.893 9.03009 178.22 9.03009C180.21 9.03009 181.724 9.89159 182.46 11.0116H182.503V4.76562H185.359ZM178.436 11.691C176.099 11.691 174.196 13.6294 174.196 15.9985C174.196 18.3677 176.099 20.306 178.436 20.306C180.686 20.306 182.633 18.3677 182.633 15.9985C182.633 13.6294 180.686 11.691 178.436 11.691Z" fill="black"/>
</g>
<g clip-path="url(#clip3)">
<path d="M15.9996 1.16666C23.6743 1.16666 29.9552 6.50809 30.08 13.203L30.0816 13.3769L30.0821 13.3835C30.0838 13.4189 30.0838 13.4544 30.0817 13.4909L30.0788 13.5278L30.0761 13.5528C30.0743 13.5675 30.0722 13.5822 30.0697 13.5968C30.0609 13.746 30.0072 13.8935 29.9074 14.0176L29.8868 14.0421L25.2328 18.8285C25.2472 18.9364 25.2546 19.0466 25.2546 19.1584V28.1079C25.2546 29.4751 24.1501 30.5833 22.7877 30.5833H9.12523C7.76283 30.5833 6.65838 29.4751 6.65838 28.1079V19.1584C6.65838 19.0186 6.66993 18.8815 6.69213 18.7481L2.14701 14.04C2.11165 13.9993 2.08149 13.9559 2.05649 13.9106C1.99715 13.8193 1.9594 13.7213 1.93781 13.621C1.9245 13.5591 1.91829 13.5008 1.91667 13.4433V13.4088L1.91742 13.3862L1.91911 13.203C2.04146 6.64199 8.07604 1.38086 15.5408 1.17303L15.7674 1.16829L15.9996 1.16666ZM21.4585 13.276L20.2565 16.683L22.7877 16.6831C23.4744 16.6831 24.0955 16.9646 24.5427 17.4188L28.1892 13.6684L28.1408 13.6258L28.0975 13.5882L28.0558 13.5525L28.0153 13.5184L27.9757 13.4858L27.9239 13.444L27.8981 13.4237L27.8724 13.4038L27.8335 13.3742L27.8073 13.3546L27.7808 13.335L27.7401 13.3056L27.6838 13.2659L27.5934 13.2039C26.9243 12.7516 26.1706 12.4647 25.2777 12.3971C24.1669 12.313 22.9023 12.5779 21.4585 13.276ZM6.80099 12.4497C5.92122 12.5153 5.16928 12.7821 4.49351 13.2026L4.43889 13.237L4.35531 13.291L4.30343 13.3253L4.22966 13.3754L4.19398 13.4004L4.14702 13.4341L4.12361 13.4512L4.08835 13.4774L4.05265 13.5045L4.0039 13.5422L3.96608 13.5721L3.92689 13.6035L3.87198 13.6481L3.84437 13.6708L7.41752 17.3721C7.86074 16.9453 8.46246 16.6831 9.12523 16.6831L11.7085 16.683L10.4898 13.2283C9.10983 12.6039 7.8877 12.3687 6.80099 12.4497ZM12.0115 13.1009L13.2752 16.683H18.6898L19.9741 13.043C19.5739 12.8283 19.0213 12.6542 18.3843 12.5289L18.26 12.5052C17.9884 12.4553 17.7028 12.4141 17.4082 12.3822L17.2715 12.3682C16.8828 12.3302 16.4799 12.3083 16.0742 12.3038L16.0124 12.3033C14.3468 12.2922 12.9233 12.5751 12.0115 13.1009Z" fill="#FF2368"/>
<path fill-rule="evenodd" clip-rule="evenodd" d="M11.6944 21.5C12.078 21.5 12.3889 21.8094 12.3889 22.1911C12.3889 24.1757 14.0056 25.7846 16 25.7846C17.9944 25.7846 19.6111 24.1757 19.6111 22.1911C19.6111 21.8094 19.922 21.5 20.3056 21.5C20.6891 21.5 21 21.8094 21 22.1911C21 24.939 18.7614 27.1667 16 27.1667C13.2386 27.1667 11 24.939 11 22.1911C11 21.8094 11.3109 21.5 11.6944 21.5Z" fill="white"/>
</g>
</g>
</g>
<defs>
<clipPath id="clip0">
<rect width="326" height="32" fill="white"/>
</clipPath>
<clipPath id="clip1">
<rect width="325.917" height="32" fill="white"/>
</clipPath>
<clipPath id="clip2">
<rect width="308.5" height="42.4926" fill="white" transform="translate(28 -5.25049)"/>
</clipPath>
<clipPath id="clip3">
<rect width="32" height="32" fill="white"/>
</clipPath>
</defs>
</svg>
