<svg width="256" height="256" viewBox="0 0 256 256" fill="none" xmlns="http://www.w3.org/2000/svg">
<g clip-path="url(#clip0)">
<path d="M127.996 9.3335C189.394 9.3335 239.641 52.065 240.64 105.624L240.653 107.015L240.657 107.068C240.67 107.352 240.67 107.636 240.653 107.928L240.63 108.222L240.608 108.423C240.594 108.54 240.577 108.658 240.557 108.774C240.487 109.968 240.057 111.149 239.259 112.141L239.094 112.337L201.862 150.628C201.977 151.492 202.036 152.373 202.036 153.268V224.864C202.036 235.801 193.201 244.667 182.302 244.667H73.0015C62.1023 244.667 53.2668 235.801 53.2668 224.864V153.268C53.2668 152.149 53.3592 151.053 53.5367 149.985L17.1757 112.32C16.8929 111.995 16.6516 111.648 16.4516 111.285C15.9768 110.555 15.6748 109.77 15.5022 108.968C15.3957 108.473 15.346 108.007 15.333 107.546V107.271L15.339 107.09L15.3525 105.624C16.3314 53.1361 64.608 11.0471 124.326 9.38452L126.139 9.34654L127.996 9.3335ZM171.667 106.209L162.051 133.464L182.302 133.465C187.794 133.465 192.763 135.717 196.341 139.351L225.514 109.348L225.126 109.006L224.78 108.706L224.446 108.42L224.122 108.148L223.806 107.887L223.391 107.553L223.185 107.39L222.979 107.23L222.668 106.994L222.458 106.837L222.246 106.681L221.92 106.445L221.47 106.127L220.747 105.631C215.394 102.013 209.365 99.7175 202.221 99.1768C193.335 98.5042 183.218 100.623 171.667 106.209ZM54.4076 99.5977C47.3695 100.122 41.3539 102.257 35.9478 105.621L35.5108 105.896L34.8422 106.328L34.4271 106.602L33.8369 107.004L33.5515 107.204L33.1758 107.473L32.9886 107.61L32.7065 107.819L32.4209 108.036L32.0308 108.338L31.7283 108.577L31.4148 108.828L30.9755 109.185L30.7546 109.367L59.3398 138.977C62.8856 135.563 67.6994 133.465 73.0015 133.465L93.6674 133.464L83.9181 105.827C72.8784 100.831 63.1013 98.9496 54.4076 99.5977ZM96.0917 104.807L106.201 133.464H149.518L159.793 104.344C156.591 102.627 152.17 101.234 147.074 100.231L146.079 100.042C143.907 99.643 141.622 99.3134 139.265 99.0581L138.172 98.9456C135.062 98.6419 131.839 98.4666 128.593 98.4307L128.099 98.4264C114.774 98.3375 103.386 100.601 96.0917 104.807Z" fill="#FF2368"/>
<path d="M169.662 160C165.929 160 162.878 162.955 162.668 166.679L162.66 166.883L162.657 167.089C162.657 186.272 147.29 201.823 128.333 201.823C109.566 201.823 94.3174 186.581 94.0143 167.663L94.0068 166.883C93.8994 163.063 90.8056 160 87.0048 160C83.2719 160 80.221 162.955 80.0115 166.679L80.0029 166.883L80 167.089C80 194.102 101.64 216 128.333 216C154.76 216 176.233 194.537 176.66 167.897L176.667 167.089L176.664 166.883C176.556 163.063 173.463 160 169.662 160Z" fill="white"/>
</g>
<defs>
<clipPath id="clip0">
<rect width="256" height="256" fill="white"/>
</clipPath>
</defs>
</svg>
